<svg width="400" height="400" viewBox="0 0 400 400" xmlns="http://www.w3.org/2000/svg">
  <defs>
    <!-- Pattern definition -->
    <pattern id="maratha-pattern" x="0" y="0" width="100" height="100" patternUnits="userSpaceOnUse">
      <!-- Decorative elements inspired by Maratha art -->
      <path d="M50,10 Q60,0 70,10 Q80,20 90,10 L90,30 Q80,40 70,30 Q60,20 50,30 Z" fill="none" stroke="#FF9933" stroke-width="1" opacity="0.3"/>
      <path d="M10,50 Q0,60 10,70 Q20,80 10,90 L30,90 Q40,80 30,70 Q20,60 30,50 Z" fill="none" stroke="#FF9933" stroke-width="1" opacity="0.3"/>
      <path d="M90,90 Q80,80 70,90 Q60,100 50,90 L50,70 Q60,60 70,70 Q80,80 90,70 Z" fill="none" stroke="#FF9933" stroke-width="1" opacity="0.3"/>
      <path d="M30,10 Q40,0 50,10 Q60,20 70,10 L70,30 Q60,40 50,30 Q40,20 30,30 Z" fill="none" stroke="#FF9933" stroke-width="1" opacity="0.3"/>
      
      <!-- Central motif -->
      <circle cx="50" cy="50" r="5" fill="none" stroke="#FF9933" stroke-width="0.5" opacity="0.5"/>
      <circle cx="50" cy="50" r="15" fill="none" stroke="#FF9933" stroke-width="0.5" opacity="0.3"/>
      <circle cx="50" cy="50" r="25" fill="none" stroke="#FF9933" stroke-width="0.5" opacity="0.2"/>
      
      <!-- Decorative lines -->
      <line x1="0" y1="25" x2="100" y2="25" stroke="#FF9933" stroke-width="0.3" opacity="0.1"/>
      <line x1="0" y1="75" x2="100" y2="75" stroke="#FF9933" stroke-width="0.3" opacity="0.1"/>
      <line x1="25" y1="0" x2="25" y2="100" stroke="#FF9933" stroke-width="0.3" opacity="0.1"/>
      <line x1="75" y1="0" x2="75" y2="100" stroke="#FF9933" stroke-width="0.3" opacity="0.1"/>
    </pattern>
  </defs>
  
  <!-- Apply the pattern to a rectangle that fills the SVG -->
  <rect width="400" height="400" fill="url(#maratha-pattern)"/>
</svg> 